$MeshFormat
2.2 0 8
$EndMeshFormat
$PhysicalNames
4
1 1 "top"
1 2 "right"
1 3 "bottom"
1 4 "left"
$EndPhysicalNames
$Nodes
98
1 0 6.283185307179586 0
2 6.283185307179586 6.283185307179586 0
3 6.283185307179586 0 0
4 0 0 0
5 0.7853981633959056 6.283185307179586 0
6 1.570796326791161 6.283185307179586 0
7 2.356194490186527 6.283185307179586 0
8 3.141592653581894 6.283185307179586 0
9 3.92699081698125 6.283185307179586 0
10 4.712388980380695 6.283185307179586 0
11 5.49778714378014 6.283185307179586 0
12 6.283185307179586 5.497787143783615 0
13 6.283185307179586 4.712388980388683 0
14 6.283185307179586 3.926990816993059 0
15 6.283185307179586 3.141592653597692 0
16 6.283185307179586 2.356194490198336 0
17 6.283185307179586 1.570796326798891 0
18 6.283185307179586 0.7853981633994449 0
19 5.497787143783615 0 0
20 4.712388980388683 0 0
21 3.926990816993059 0 0
22 3.141592653597692 0 0
23 2.356194490198336 0 0
24 1.570796326798891 0 0
25 0.7853981633994449 0 0
26 0 0.7853981633959056 0
27 0 1.570796326791161 0
28 0 2.356194490186527 0
29 0 3.141592653581894 0
30 0 3.92699081698125 0
31 0 4.712388980380695 0
32 0 5.49778714378014 0
33 5.603010545591831 2.748893571898014 0
34 2.738872751457305 0.6957053109650363 0
35 0.6801747615877565 3.534291735281571 0
36 3.574371103911402 5.5212916543832 0
37 5.626635255662002 4.317736670101977 0
38 4.204870806535388 0.7430663654178554 0
39 0.6723953433707746 1.947107941117668 0
40 1.963495408488844 5.603010545593606 0
41 0.6650532090043111 5.101760040029488 0
42 1.277635878896345 0.6879157509074302 0
43 5.108799177582694 5.524367928230925 0
44 5.603010545590025 1.178097245099168 0
45 0.6776545028241766 4.319135228338292 0
46 1.349964397292338 3.909638342289278 0
47 1.358618668860395 3.138700574468813 0
48 2.028539871972632 3.513657613346771 0
49 2.031037306429753 2.733436625128979 0
50 2.718873247782176 3.138523685157618 0
51 2.718739442738106 3.851951626601029 0
52 3.412716400306552 3.499668985647407 0
53 3.402543273567391 2.74261161887583 0
54 4.083300579186849 3.134775203142545 0
55 4.095871162595302 3.898479393799775 0
56 4.081286754364278 2.355398851008351 0
57 3.401191749678941 1.962315809792226 0
58 4.761223331105001 3.534291735280521 0
59 4.081048569517981 1.570796326792446 0
60 4.727286873642059 1.968633053379941 0
61 4.714553894111265 4.309519686149649 0
62 4.035462950153135 4.748918446847441 0
63 3.424320390520223 1.178543686008294 0
64 2.720699046345923 1.570796326793132 0
65 2.030813757796408 1.117610398490251 0
66 1.997317681878154 1.894279928996846 0
67 1.339092852219511 1.492684987034248 0
68 1.439264163942755 4.804546031342787 0
69 4.319689898681503 5.60301054559033 0
70 3.308428713292342 4.884690516631069 0
71 2.753302814879733 5.421615750242076 0
72 2.168899470340734 4.912869498664164 0
73 5.603010545590331 1.963495408498084 0
74 1.350413746424227 2.334520286319632 0
75 5.603010545592046 3.534291735294004 0
76 0.6778597557203567 2.744018125414167 0
77 2.711943717613723 2.340327332457438 0
78 4.761223331104606 2.748893571885154 0
79 5.699316236773946 5.077732825127017 0
80 5.068255986841583 0.6497805286346013 0
81 1.180812698946182 5.629108768938947 0
82 0.6460805524549803 1.200926294930579 0
83 4.672872869233816 4.978339777534999 0
84 4.711928111668562 1.263479069726631 0
85 2.025691763830589 4.234406101168497 0
86 3.534291735295376 0.5311534759490273 0
87 3.40721848567685 4.221297875955226 0
88 1.963495408498614 0.4859261862833674 0
89 5.708233947400251 0.5749513597802665 0
90 5.708233947399319 5.708233947400251 0
91 0.5749513597793293 5.708233947399308 0
92 0.574951359780278 0.5749513597793298 0
93 2.730380115126392 4.587805228210343 0
94 5.182116938354219 2.356194490198853 0
95 5.182116938351502 3.141592653592536 0
96 5.182116938342234 3.926990816977991 0
97 5.181700380729295 1.634638719867938 0
98 5.18585842564049 4.705882280856652 0
$EndNodes
$Elements
194
1 1 2 1 1 1 5
2 1 2 1 1 5 6
3 1 2 1 1 6 7
4 1 2 1 1 7 8
5 1 2 1 1 8 9
6 1 2 1 1 9 10
7 1 2 1 1 10 11
8 1 2 1 1 11 2
9 1 2 2 2 2 12
10 1 2 2 2 12 13
11 1 2 2 2 13 14
12 1 2 2 2 14 15
13 1 2 2 2 15 16
14 1 2 2 2 16 17
15 1 2 2 2 17 18
16 1 2 2 2 18 3
17 1 2 3 3 3 19
18 1 2 3 3 19 20
19 1 2 3 3 20 21
20 1 2 3 3 21 22
21 1 2 3 3 22 23
22 1 2 3 3 23 24
23 1 2 3 3 24 25
24 1 2 3 3 25 4
25 1 2 4 4 4 26
26 1 2 4 4 26 27
27 1 2 4 4 27 28
28 1 2 4 4 28 29
29 1 2 4 4 29 30
30 1 2 4 4 30 31
31 1 2 4 4 31 32
32 1 2 4 4 32 1
33 2 2 10 6 40 68 81
34 2 2 10 6 68 40 72
35 2 2 10 6 62 36 69
36 2 2 10 6 59 38 63
37 2 2 10 6 36 62 70
38 2 2 10 6 63 38 86
39 2 2 10 6 7 8 71
40 2 2 10 6 65 42 67
41 2 2 10 6 67 39 74
42 2 2 10 6 42 65 88
43 2 2 10 6 8 36 71
44 2 2 10 6 40 7 71
45 2 2 10 6 64 34 65
46 2 2 10 6 63 34 64
47 2 2 10 6 66 49 77
48 2 2 10 6 66 67 74
49 2 2 10 6 68 41 81
50 2 2 10 6 36 70 71
51 2 2 10 6 64 66 77
52 2 2 10 6 49 66 74
53 2 2 10 6 71 70 93
54 2 2 10 6 72 71 93
55 2 2 10 6 62 69 83
56 2 2 10 6 38 59 84
57 2 2 10 6 64 65 66
58 2 2 10 6 44 80 84
59 2 2 10 6 44 84 97
60 2 2 10 6 68 72 85
61 2 2 10 6 40 71 72
62 2 2 10 6 66 65 67
63 2 2 10 6 39 67 82
64 2 2 10 6 35 45 46
65 2 2 10 6 35 30 45
66 2 2 10 6 36 9 69
67 2 2 10 6 33 16 73
68 2 2 10 6 8 9 36
69 2 2 10 6 29 30 35
70 2 2 10 6 15 16 33
71 2 2 10 6 22 23 34
72 2 2 10 6 35 47 76
73 2 2 10 6 45 41 68
74 2 2 10 6 29 35 76
75 2 2 10 6 74 39 76
76 2 2 10 6 15 33 75
77 2 2 10 6 37 14 75
78 2 2 10 6 47 74 76
79 2 2 10 6 10 43 69
80 2 2 10 6 17 44 73
81 2 2 10 6 31 41 45
82 2 2 10 6 14 15 75
83 2 2 10 6 35 46 47
84 2 2 10 6 16 17 73
85 2 2 10 6 30 31 45
86 2 2 10 6 9 10 69
87 2 2 10 6 46 45 68
88 2 2 10 6 10 11 43
89 2 2 10 6 17 18 44
90 2 2 10 6 24 25 42
91 2 2 10 6 31 32 41
92 2 2 10 6 28 29 76
93 2 2 10 6 39 28 76
94 2 2 10 6 47 46 48
95 2 2 10 6 13 14 37
96 2 2 10 6 20 21 38
97 2 2 10 6 47 48 49
98 2 2 10 6 47 49 74
99 2 2 10 6 49 48 50
100 2 2 10 6 6 7 40
101 2 2 10 6 27 28 39
102 2 2 10 6 50 48 51
103 2 2 10 6 50 53 77
104 2 2 10 6 49 50 77
105 2 2 10 6 50 51 52
106 2 2 10 6 54 52 55
107 2 2 10 6 50 52 53
108 2 2 10 6 57 63 64
109 2 2 10 6 53 52 54
110 2 2 10 6 57 59 63
111 2 2 10 6 53 56 57
112 2 2 10 6 53 54 56
113 2 2 10 6 54 55 58
114 2 2 10 6 57 56 59
115 2 2 10 6 53 57 77
116 2 2 10 6 57 64 77
117 2 2 10 6 61 55 62
118 2 2 10 6 58 55 61
119 2 2 10 6 54 58 78
120 2 2 10 6 56 54 78
121 2 2 10 6 59 56 60
122 2 2 10 6 60 56 78
123 2 2 10 6 70 62 87
124 2 2 10 6 43 79 98
125 2 2 10 6 83 43 98
126 2 2 10 6 12 13 79
127 2 2 10 6 19 20 80
128 2 2 10 6 5 6 81
129 2 2 10 6 34 63 86
130 2 2 10 6 26 27 82
131 2 2 10 6 27 39 82
132 2 2 10 6 65 34 88
133 2 2 10 6 20 38 80
134 2 2 10 6 13 37 79
135 2 2 10 6 6 40 81
136 2 2 10 6 87 51 93
137 2 2 10 6 67 42 82
138 2 2 10 6 51 48 85
139 2 2 10 6 46 68 85
140 2 2 10 6 22 34 86
141 2 2 10 6 38 21 86
142 2 2 10 6 62 55 87
143 2 2 10 6 52 51 87
144 2 2 10 6 34 23 88
145 2 2 10 6 24 42 88
146 2 2 10 6 2 12 90
147 2 2 10 6 3 19 89
148 2 2 10 6 4 26 92
149 2 2 10 6 1 5 91
150 2 2 10 6 11 2 90
151 2 2 10 6 18 3 89
152 2 2 10 6 25 4 92
153 2 2 10 6 32 1 91
154 2 2 10 6 51 85 93
155 2 2 10 6 69 43 83
156 2 2 10 6 61 62 83
157 2 2 10 6 59 60 84
158 2 2 10 6 70 87 93
159 2 2 10 6 48 46 85
160 2 2 10 6 80 38 84
161 2 2 10 6 21 22 86
162 2 2 10 6 55 52 87
163 2 2 10 6 85 72 93
164 2 2 10 6 12 79 90
165 2 2 10 6 19 80 89
166 2 2 10 6 5 81 91
167 2 2 10 6 23 24 88
168 2 2 10 6 44 18 89
169 2 2 10 6 43 11 90
170 2 2 10 6 41 32 91
171 2 2 10 6 42 25 92
172 2 2 10 6 26 82 92
173 2 2 10 6 60 94 97
174 2 2 10 6 33 73 94
175 2 2 10 6 37 75 96
176 2 2 10 6 94 78 95
177 2 2 10 6 78 58 95
178 2 2 10 6 33 94 95
179 2 2 10 6 60 78 94
180 2 2 10 6 75 33 95
181 2 2 10 6 58 61 96
182 2 2 10 6 95 58 96
183 2 2 10 6 75 95 96
184 2 2 10 6 94 73 97
185 2 2 10 6 73 44 97
186 2 2 10 6 80 44 89
187 2 2 10 6 79 43 90
188 2 2 10 6 81 41 91
189 2 2 10 6 96 61 98
190 2 2 10 6 37 96 98
191 2 2 10 6 82 42 92
192 2 2 10 6 79 37 98
193 2 2 10 6 84 60 97
194 2 2 10 6 61 83 98
$EndElements
