$MeshFormat
2.2 0 8
$EndMeshFormat
$PhysicalNames
4
1 1 "top"
1 2 "right"
1 3 "bottom"
1 4 "left"
$EndPhysicalNames
$Nodes
357
1 -1 1 0
2 1 1 0
3 1 -1 0
4 -1 -1 0
5 -0.875000000000321 1 0
6 -0.7500000000006948 1 0
7 -0.6250000000010423 1 0
8 -0.5000000000013898 1 0
9 -0.3750000000017368 1 0
10 -0.250000000002084 1 0
11 -0.1250000000024202 1 0
12 -2.756350703236876e-12 1 0
13 0.1249999999975797 1 0
14 0.2499999999979157 1 0
15 0.3749999999982629 1 0
16 0.4999999999986104 1 0
17 0.6249999999989577 1 0
18 0.7499999999993052 1 0
19 0.8749999999996525 1 0
20 1 0.875000000000321 0
21 1 0.7500000000006948 0
22 1 0.6250000000010423 0
23 1 0.5000000000013898 0
24 1 0.3750000000017368 0
25 1 0.250000000002084 0
26 1 0.1250000000024202 0
27 1 2.756350703236876e-12 0
28 1 -0.1249999999975797 0
29 1 -0.2499999999979157 0
30 1 -0.3749999999982629 0
31 1 -0.4999999999986104 0
32 1 -0.6249999999989577 0
33 1 -0.7499999999993052 0
34 1 -0.8749999999996525 0
35 0.875000000000321 -1 0
36 0.7500000000006948 -1 0
37 0.6250000000010423 -1 0
38 0.5000000000013898 -1 0
39 0.3750000000017368 -1 0
40 0.250000000002084 -1 0
41 0.1250000000024202 -1 0
42 2.756350703236876e-12 -1 0
43 -0.1249999999975797 -1 0
44 -0.2499999999979157 -1 0
45 -0.3749999999982629 -1 0
46 -0.4999999999986104 -1 0
47 -0.6249999999989577 -1 0
48 -0.7499999999993052 -1 0
49 -0.8749999999996525 -1 0
50 -1 -0.875000000000321 0
51 -1 -0.7500000000006948 0
52 -1 -0.6250000000010423 0
53 -1 -0.5000000000013898 0
54 -1 -0.3750000000017368 0
55 -1 -0.250000000002084 0
56 -1 -0.1250000000024202 0
57 -1 -2.756350703236876e-12 0
58 -1 0.1249999999975797 0
59 -1 0.2499999999979157 0
60 -1 0.3749999999982629 0
61 -1 0.4999999999986104 0
62 -1 0.6249999999989577 0
63 -1 0.7499999999993052 0
64 -1 0.8749999999996525 0
65 -0.7785501216493612 0.1281897262116024 0
66 0.1249999999975797 0.7834936490538905 0
67 0.7574817180941272 -0.137757659264527 0
68 -0.1249999999975797 -0.7834936490538905 0
69 -0.3802162928754874 0.7859699147811141 0
70 0.7834936490544919 0.3750000000017369 0
71 0.3743782680321292 -0.7910136278276634 0
72 -0.7634746297969194 -0.3384519478459249 0
73 0.6239406576787081 0.7883069887356414 0
74 0.7584609264726 -0.6261812847521692 0
75 -0.6249999999989577 -0.7834936490532887 0
76 -0.7810296156247259 0.5933158688040863 0
77 0.3748234429446009 0.7842958723340751 0
78 0.2444765357536956 0.5702929863456703 0
79 -0.0009205773760269005 0.5675382461478482 0
80 0.1184319549930308 0.3542957042330864 0
81 -0.1299200989647813 0.3535007461552935 0
82 -0.0009768829925322431 0.1345557659502893 0
83 0.2261142838486748 0.1345983574186861 0
84 0.1139792365021901 -0.08630136895912555 0
85 -0.1269996077494671 -0.0830631621446607 0
86 -0.00217006187610818 -0.2997549426151623 0
87 0.2409245321300725 -0.3037562835891677 0
88 -0.2502532598182702 -0.2991139222650983 0
89 -0.375375477928545 -0.08263295872955663 0
90 0.124999999997264 -0.5155444566196219 0
91 -0.5000000000009357 -0.2990381056737837 0
92 -0.3733646368411077 -0.5047421467071169 0
93 0.3717627208053934 -0.5006891134423098 0
94 0.5116276903120103 -0.2845277523621567 0
95 -0.6248578934442071 -0.08999503376337117 0
96 -0.5000000000007181 0.1339745962172624 0
97 -0.6442535612589446 0.3535719038952468 0
98 -0.3970319714010159 0.3642340360084937 0
99 -0.5248636116691279 0.5737535066204221 0
100 0.5293345004014164 0.5418679877870642 0
101 0.7834936490533925 -0.3749999999984426 0
102 0.554845282391747 -0.05310556717514414 0
103 0.7257538923917538 0.1235964943663516 0
104 0.5638149309555274 0.3096178564519106 0
105 -0.3749999999984426 -0.7834936490533925 0
106 -0.2568991133680528 0.5701499540746506 0
107 0.1250000000019581 -0.7834936490539633 0
108 -0.1265519028133733 0.7842305383080651 0
109 -0.1250000000020595 -0.5155444566194952 0
110 -0.2550506731728432 0.1367615039095203 0
111 0.7918009715571166 0.6241356441941895 0
112 0.6162925576380369 -0.8141487026529789 0
113 -0.7931684338859171 -0.6132759863219766 0
114 -0.6177332877456039 0.794346172882473 0
115 0.5846547679714792 -0.4874216311572166 0
116 -0.5978221211198672 -0.4998533009314067 0
117 0.3478533241187305 0.3552022852116694 0
118 -0.8309285975245934 -0.1250000000024202 0
119 0.343680846443039 -0.08455132837904825 0
120 -0.8453248909505505 0.374999999998263 0
121 -0.8169872981074082 0.8169872981070361 0
122 0.8169872981070361 0.8169872981074082 0
123 0.8169872981074082 -0.8169872981070361 0
124 -0.8169872981070361 -0.8169872981074082 0
125 0.4603437600249121 0.1308930163157375 0
126 -0.2499999999977444 -0.6495190528387828 0
127 2.228249474421642e-12 -0.6495190528389826 0
128 0.2500000000021308 -0.6495190528395228 0
129 -0.4796783351271363 -0.6493864584283766 0
130 0.4979288532139997 -0.6507100052310049 0
131 0.6564140747279541 0.4584339938944005 0
132 0.6605677359792665 0.5830018159906269 0
133 0.7876473103058043 0.4995678220979632 0
134 0.6736542900050096 0.3423089282268238 0
135 0.5465747156784719 0.4257429221194874 0
136 0.6345547042030688 -0.2111427058133419 0
137 0.7704876835737599 -0.2563788296314848 0
138 0.6475606696827014 -0.3297638761802997 0
139 -0.6317373148989276 -0.3187450267598543 0
140 -0.6941662616205633 -0.214223490804648 0
141 -0.5624289467225714 -0.1945165697185774 0
142 0.5332364863518786 -0.1688166597686504 0
143 0.6561635002429371 -0.09543161321983558 0
144 -0.7972016136607564 -0.2317259739241725 0
145 -0.7278932454844003 -0.1074975168828957 0
146 0.862876946195877 0.061798247184554 0
147 0.862876946195877 0.1867982471842178 0
148 -0.7126415884418353 0.4734438863496666 0
149 -0.6529466136469269 0.5835346877122543 0
150 -0.5845585864640362 0.4636627052578345 0
151 -0.4525399522723076 0.6798617107007681 0
152 -0.3185577031217701 0.6780599344278824 0
153 -0.3908813625185903 0.5719517303475363 0
154 -0.7447892261047475 0.3642859519467549 0
155 -0.8131772532876382 0.4841579344011746 0
156 0.8787408590470636 -0.06887882963088533 0
157 0.7416178052429405 -0.007080582449087686 0
158 0.891746824527246 0.3125000000019105 0
159 0.7546237707231229 0.2492982471840443 0
160 -0.6392750608250397 0.1310821612144324 0
161 -0.711401841454153 0.2408808150534246 0
162 -0.5721267806298314 0.2437732500562546 0
163 -0.7017040075467842 0.0190973462241156 0
164 -0.5624289467224626 0.02198978122694563 0
165 -0.2634760351828986 0.3588673910818936 0
166 -0.1924853860688123 0.2451311250324069 0
167 -0.3260413222869296 0.250497769959007 0
168 -0.4609477915350719 0.468993771314458 0
169 -0.3269655423845343 0.4671919950415722 0
170 0.5766375790400622 0.6650874882613529 0
171 0.7078708146179123 0.7062213164649155 0
172 0.6402995873917504 0.03524546359560375 0
173 -0.448515985700867 0.2491043161128781 0
174 -0.3775253365867807 0.1353680500633914 0
175 -0.1934096061664171 0.4618253501149721 0
176 0.5075945212083295 0.0388937245702967 0
177 0.5930488262083329 0.1272447553410446 0
178 0.6447844116736405 0.2166071754091312 0
179 0.5120793454902197 0.2202554363838241 0
180 0.6840742085124358 -0.4312108155778296 0
181 0.5481412291417447 -0.3859746917596867 0
182 -0.5489110605604015 -0.3994457033025952 0
183 -0.6806483754583933 -0.4191526243886657 0
184 -0.5206427663299803 0.3589029699518703 0
185 -0.7090842169424374 -0.6983848176876326 0
186 -0.6954952775028922 -0.5565646436266916 0
187 -0.6114110605594125 -0.6416734749923476 0
188 -0.5387502281235017 -0.5746198796798916 0
189 -0.552339167563047 -0.7164400537408326 0
190 0.4558341275371289 0.33241007083179 0
191 0.4385939122600734 0.4485351364993668 0
192 -0.5712984497073659 0.6840498397514476 0
193 -0.4989747903105456 0.7901580438317936 0
194 0.2499117214710903 0.7838947606939828 0
195 0.3096499893491482 0.6772944293398726 0
196 0.1847382678756376 0.6768933176997805 0
197 0.1874999999977477 0.8917468245269453 0
198 0.3124117214712583 0.8921479361670375 0
199 0.8787408590470636 -0.1938788296312213 0
200 0.8917468245266962 -0.3124999999981791 0
201 -0.1874999999977477 -0.8917468245269453 0
202 -0.3124999999981791 -0.8917468245266962 0
203 -0.2499999999980111 -0.7834936490536415 0
204 0.06249999999741165 0.8917468245269453 0
205 -0.06249999999741165 -0.8917468245269453 0
206 -0.8892750608246807 0.189094863104759 0
207 -0.8892750608246807 0.06409486310442301 0
208 0.4993820503116545 0.7863014305348582 0
209 0.4520789716730086 0.6630819300605697 0
210 0.06203971131077637 0.6755159476008694 0
211 -0.06373624009470007 0.6758843922279567 0
212 -0.0007759514078967966 0.7838620936809778 0
213 -0.0632759514080648 0.8921152691540326 0
214 -0.2533840978444303 0.7851002265445897 0
215 -0.191725508090713 0.6771902461913579 0
216 2.189207148894923e-12 -0.7834936490539269 0
217 0.06250000000235721 -0.8917468245269817 0
218 0.3121891340171066 -0.8955068139138317 0
219 0.187500000002021 -0.8917468245269817 0
220 0.2496891340170436 -0.7872536384408133 0
221 -0.1289098453720399 0.5688441001112494 0
222 0.5619703288386593 0.8941534943678207 0
223 0.4374117214716057 0.8921479361670375 0
224 0.8792304632362999 -0.5630906423753899 0
225 0.7709772877629962 -0.5005906423753059 0
226 0.8917468245266962 -0.4374999999985265 0
227 -0.5624999999987841 -0.8917468245266443 0
228 -0.4999999999987002 -0.7834936490533406 0
229 -0.4374999999985265 -0.8917468245266962 0
230 0.1217779791888343 0.5689156162467592 0
231 0.386905518077556 0.5560804870663673 0
232 0.6869703288390067 0.8941534943678207 0
233 0.8792304632362999 -0.6880906423757371 0
234 -0.6874999999991315 -0.8917468245266443 0
235 -0.890514807812363 0.6716579344016957 0
236 -0.890514807812363 0.5466579344013484 0
237 -0.1882759514077286 0.8921152691540326 0
238 -0.3151081464387857 0.8929849573905571 0
239 0.1814542453733632 0.4622943452893783 0
240 0.05875568880850197 0.4609169751904673 0
241 -0.005744071985875232 0.3538982251941899 0
242 -0.0654203381704041 0.4605194961515708 0
243 0.05872753600024929 0.2444257350916879 0
244 -0.06544849097865678 0.2440282560527914 0
245 -0.3128143688734076 -0.1908734404973275 0
246 -0.375126629909603 -0.2990760139694409 0
247 -0.4376877389647403 -0.1908355322016702 0
248 -0.06458483481278765 -0.1914090523799115 0
249 -0.1262116608471892 -0.2994344324401302 0
250 -0.1886264337838687 -0.1910885422048795 0
251 0.1193772351269822 -0.301755613102165 0
252 0.1829622660636682 -0.4096503701043948 0
253 0.0614149690605779 -0.4076496996173921 0
254 0.05650117675482891 0.0241271984955819 0
255 -0.006510185623638531 -0.08468226555189312 0
256 -0.06398824537099967 0.02574630190281432 0
257 0.1722731194208528 0.2444470308258863 0
258 0.1125687004280713 0.1345770616844877 0
259 0.05590458731304094 -0.1930281557871439 0
260 0.1774518843161313 -0.1950288262741466 0
261 -0.251187542839006 -0.08284806043710866 0
262 -0.500116685686376 -0.08631399624646391 0
263 -0.4376877389646315 0.02567081874385289 0
264 -0.3152130755506941 0.02706427258998181 0
265 0.1700467601754324 0.0241484942297803 0
266 -0.1910251404611552 0.02684917088242979 0
267 -0.1280137780826877 0.1356586349299048 0
268 -0.4401081464384385 0.8929849573905571 0
269 0.891746824527246 0.4375000000015633 0
270 0.4371891340167595 -0.8955068139138317 0
271 -0.8817373148984597 -0.2942259739240044 0
272 -0.8817373148984597 -0.4192259739236573 0
273 0.3063436264677329 -0.4022226985157388 0
274 0.3762761112210414 -0.2941420179756622 0
275 0.4416952055587018 -0.3926084329022332 0
276 0.2483813604013287 -0.5081167850309658 0
277 -0.06358503093908383 -0.4076496996173288 0
278 -0.1876266299101649 -0.4073291894422967 0
279 -2.397762544070758e-12 -0.5155444566195586 0
280 -0.311808948329689 -0.4019280344861076 0
281 -0.4366823184210217 -0.4018901261904503 0
282 -0.2491823184215836 -0.5101433016633061 0
283 0.4276542683775246 -0.1845395403706025 0
284 0.4492630644173931 -0.06882844777709619 0
285 0.6873767420553185 -0.720164993702574 0
286 0.5571107054260183 -0.7324293539419919 0
287 0.6281948898432999 -0.638445644991587 0
288 0.6715578472220396 -0.5568014579546929 0
289 0.5412918105927395 -0.5690658181941107 0
290 0.8959004857785583 0.5620678220977897 0
291 0.8959004857785583 0.6870678220974422 0
292 0.5581462788197133 -0.9070743513264894 0
293 0.6831462788193658 -0.9070743513264894 0
294 -0.8965842169429585 -0.5566379931616832 0
295 -0.8965842169429585 -0.6816379931613357 0
296 -0.8047393595869773 0.001594863104591115 0
297 -0.5588666438734968 0.8971730864412365 0
298 -0.6838666438731493 0.8971730864412365 0
299 -0.8119375062999559 0.2515948631049327 0
300 0.4953354128350831 -0.8025811652403212 0
301 -0.7783215318414183 -0.4758639670839507 0
302 0.284897565145857 0.02502351451981895 0
303 0.3432290219367934 0.1327456868672118 0
304 0.4020123032339755 0.02317084396834465 0
305 -0.6993814516851649 0.6938310208432796 0
306 0.2331426395558807 0.3547489947223779 0
307 0.2869838039837027 0.2449003213151777 0
308 0.296164929936213 0.4627476357786698 0
309 -0.9154642987622967 -0.06250000000258826 0
310 -0.9154642987622967 -0.1875000000022521 0
311 0.2923026892865558 -0.194153805984108 0
312 0.2288300414726145 -0.0854263486690869 0
313 -0.9226624454752752 0.3124999999980893 0
314 -0.9226624454752752 0.4374999999984367 0
315 -0.9084936490537041 0.908493649053518 0
316 -0.9084936490537041 0.7834936490531706 0
317 0.908493649053518 0.9084936490537041 0
318 0.7834936490531706 0.9084936490537041 0
319 0.9084936490537041 -0.908493649053518 0
320 0.9084936490537041 -0.7834936490531706 0
321 -0.908493649053518 -0.9084936490537041 0
322 -0.7834936490531706 -0.9084936490537041 0
323 -0.7834936490540515 0.908493649053518 0
324 0.908493649053518 0.7834936490540515 0
325 0.7834936490540515 -0.908493649053518 0
326 -0.908493649053518 -0.7834936490540515 0
327 0.4040985420718213 0.2430476507637034 0
328 0.4782087443884363 -0.4940553722997632 0
329 -0.4855933789804874 -0.5022977238192619 0
330 0.8043941348320763 0.7205614711507988 0
331 0.7166399278727226 -0.8155680003800074 0
332 -0.8050778659964766 -0.7151316422146924 0
333 0.7204639778928721 0.8026471434215248 0
334 0.7877241122900041 -0.7215842914296027 0
335 -0.7209936490529969 -0.8002404735803484 0
336 -0.7990084568660671 0.7051515834555612 0
337 -0.717360292926506 0.8056667354947545 0
338 -0.3116823184194261 -0.5771305997729499 0
339 -0.3648391675624403 -0.6494527556335796 0
340 -0.426521485984122 -0.5770643025677468 0
341 -0.3124999999980935 -0.7165063509460876 0
342 -0.187499999997662 -0.7165063509463366 0
343 0.06249999999974612 -0.5825317547293023 0
344 0.1874999999996974 -0.5825317547295723 0
345 0.1250000000021795 -0.6495190528392527 0
346 -0.187499999999902 -0.582531754729139 0
347 -0.06249999999991562 -0.5825317547292389 0
348 -0.1249999999977581 -0.6495190528388827 0
349 0.3108813604037621 -0.5751040831409163 0
350 -0.0624999999976757 -0.7165063509464366 0
351 0.06250000000209316 -0.716506350946473 0
352 0.1875000000020444 -0.7165063509467431 0
353 0.31218913401713 -0.7202663403335932 0
354 -0.4273391675627894 -0.7164400537408846 0
355 0.4348457870096966 -0.5756995593366574 0
356 0.3739644266080653 -0.6501145290352639 0
357 0.4361535606230644 -0.7208618165293341 0
$EndNodes
$Elements
712
1 1 2 1 1 1 5
2 1 2 1 1 5 6
3 1 2 1 1 6 7
4 1 2 1 1 7 8
5 1 2 1 1 8 9
6 1 2 1 1 9 10
7 1 2 1 1 10 11
8 1 2 1 1 11 12
9 1 2 1 1 12 13
10 1 2 1 1 13 14
11 1 2 1 1 14 15
12 1 2 1 1 15 16
13 1 2 1 1 16 17
14 1 2 1 1 17 18
15 1 2 1 1 18 19
16 1 2 1 1 19 2
17 1 2 2 2 2 20
18 1 2 2 2 20 21
19 1 2 2 2 21 22
20 1 2 2 2 22 23
21 1 2 2 2 23 24
22 1 2 2 2 24 25
23 1 2 2 2 25 26
24 1 2 2 2 26 27
25 1 2 2 2 27 28
26 1 2 2 2 28 29
27 1 2 2 2 29 30
28 1 2 2 2 30 31
29 1 2 2 2 31 32
30 1 2 2 2 32 33
31 1 2 2 2 33 34
32 1 2 2 2 34 3
33 1 2 3 3 3 35
34 1 2 3 3 35 36
35 1 2 3 3 36 37
36 1 2 3 3 37 38
37 1 2 3 3 38 39
38 1 2 3 3 39 40
39 1 2 3 3 40 41
40 1 2 3 3 41 42
41 1 2 3 3 42 43
42 1 2 3 3 43 44
43 1 2 3 3 44 45
44 1 2 3 3 45 46
45 1 2 3 3 46 47
46 1 2 3 3 47 48
47 1 2 3 3 48 49
48 1 2 3 3 49 4
49 1 2 4 4 4 50
50 1 2 4 4 50 51
51 1 2 4 4 51 52
52 1 2 4 4 52 53
53 1 2 4 4 53 54
54 1 2 4 4 54 55
55 1 2 4 4 55 56
56 1 2 4 4 56 57
57 1 2 4 4 57 58
58 1 2 4 4 58 59
59 1 2 4 4 59 60
60 1 2 4 4 60 61
61 1 2 4 4 61 62
62 1 2 4 4 62 63
63 1 2 4 4 63 64
64 1 2 4 4 64 1
65 2 2 1 1 70 131 133
66 2 2 1 1 131 132 133
67 2 2 1 1 131 100 132
68 2 2 1 1 133 132 111
69 2 2 1 1 100 131 135
70 2 2 1 1 131 134 135
71 2 2 1 1 131 70 134
72 2 2 1 1 135 134 104
73 2 2 1 1 94 136 138
74 2 2 1 1 136 137 138
75 2 2 1 1 136 67 137
76 2 2 1 1 138 137 101
77 2 2 1 1 91 139 141
78 2 2 1 1 139 140 141
79 2 2 1 1 139 72 140
80 2 2 1 1 141 140 95
81 2 2 1 1 67 136 143
82 2 2 1 1 136 142 143
83 2 2 1 1 136 94 142
84 2 2 1 1 143 142 102
85 2 2 1 1 95 140 145
86 2 2 1 1 140 144 145
87 2 2 1 1 140 72 144
88 2 2 1 1 145 144 118
89 2 2 1 1 25 26 147
90 2 2 1 1 26 146 147
91 2 2 1 1 26 27 146
92 2 2 1 1 147 146 103
93 2 2 1 1 97 148 150
94 2 2 1 1 148 149 150
95 2 2 1 1 148 76 149
96 2 2 1 1 150 149 99
97 2 2 1 1 99 151 153
98 2 2 1 1 151 152 153
99 2 2 1 1 151 69 152
100 2 2 1 1 153 152 106
101 2 2 1 1 76 148 155
102 2 2 1 1 148 154 155
103 2 2 1 1 148 97 154
104 2 2 1 1 155 154 120
105 2 2 1 1 27 156 146
106 2 2 1 1 156 157 146
107 2 2 1 1 156 67 157
108 2 2 1 1 146 157 103
109 2 2 1 1 70 158 159
110 2 2 1 1 158 147 159
111 2 2 1 1 158 25 147
112 2 2 1 1 159 147 103
113 2 2 1 1 96 160 162
114 2 2 1 1 160 161 162
115 2 2 1 1 160 65 161
116 2 2 1 1 162 161 97
117 2 2 1 1 95 163 164
118 2 2 1 1 163 160 164
119 2 2 1 1 163 65 160
120 2 2 1 1 164 160 96
121 2 2 1 1 98 165 167
122 2 2 1 1 165 166 167
123 2 2 1 1 165 81 166
124 2 2 1 1 167 166 110
125 2 2 1 1 98 168 169
126 2 2 1 1 168 153 169
127 2 2 1 1 168 99 153
128 2 2 1 1 169 153 106
129 2 2 1 1 100 170 132
130 2 2 1 1 170 171 132
131 2 2 1 1 170 73 171
132 2 2 1 1 132 171 111
133 2 2 1 1 67 143 157
134 2 2 1 1 143 172 157
135 2 2 1 1 143 102 172
136 2 2 1 1 157 172 103
137 2 2 1 1 96 173 174
138 2 2 1 1 173 167 174
139 2 2 1 1 173 98 167
140 2 2 1 1 174 167 110
141 2 2 1 1 81 165 175
142 2 2 1 1 165 169 175
143 2 2 1 1 165 98 169
144 2 2 1 1 175 169 106
145 2 2 1 1 103 172 177
146 2 2 1 1 172 176 177
147 2 2 1 1 172 102 176
148 2 2 1 1 177 176 125
149 2 2 1 1 104 178 179
150 2 2 1 1 178 177 179
151 2 2 1 1 178 103 177
152 2 2 1 1 179 177 125
153 2 2 1 1 94 138 181
154 2 2 1 1 138 180 181
155 2 2 1 1 138 101 180
156 2 2 1 1 181 180 115
157 2 2 1 1 72 139 183
158 2 2 1 1 139 182 183
159 2 2 1 1 139 91 182
160 2 2 1 1 183 182 116
161 2 2 1 1 96 162 173
162 2 2 1 1 162 184 173
163 2 2 1 1 162 97 184
164 2 2 1 1 173 184 98
165 2 2 1 1 75 185 187
166 2 2 1 1 185 186 187
167 2 2 1 1 185 113 186
168 2 2 1 1 187 186 116
169 2 2 1 1 75 187 189
170 2 2 1 1 187 188 189
171 2 2 1 1 187 116 188
172 2 2 1 1 189 188 129
173 2 2 1 1 100 135 191
174 2 2 1 1 135 190 191
175 2 2 1 1 135 104 190
176 2 2 1 1 191 190 117
177 2 2 1 1 70 159 134
178 2 2 1 1 159 178 134
179 2 2 1 1 159 103 178
180 2 2 1 1 134 178 104
181 2 2 1 1 98 184 168
182 2 2 1 1 184 150 168
183 2 2 1 1 184 97 150
184 2 2 1 1 168 150 99
185 2 2 1 1 69 151 193
186 2 2 1 1 151 192 193
187 2 2 1 1 151 99 192
188 2 2 1 1 193 192 114
189 2 2 1 1 66 194 196
190 2 2 1 1 194 195 196
191 2 2 1 1 194 77 195
192 2 2 1 1 196 195 78
193 2 2 1 1 66 197 194
194 2 2 1 1 197 198 194
195 2 2 1 1 197 14 198
196 2 2 1 1 194 198 77
197 2 2 1 1 67 199 137
198 2 2 1 1 199 200 137
199 2 2 1 1 199 29 200
200 2 2 1 1 137 200 101
201 2 2 1 1 68 201 203
202 2 2 1 1 201 202 203
203 2 2 1 1 201 44 202
204 2 2 1 1 203 202 105
205 2 2 1 1 12 13 204
206 2 2 1 1 13 197 204
207 2 2 1 1 13 14 197
208 2 2 1 1 204 197 66
209 2 2 1 1 27 28 156
210 2 2 1 1 28 199 156
211 2 2 1 1 28 29 199
212 2 2 1 1 156 199 67
213 2 2 1 1 42 43 205
214 2 2 1 1 43 201 205
215 2 2 1 1 43 44 201
216 2 2 1 1 205 201 68
217 2 2 1 1 57 58 207
218 2 2 1 1 58 206 207
219 2 2 1 1 58 59 206
220 2 2 1 1 207 206 65
221 2 2 1 1 77 208 209
222 2 2 1 1 208 170 209
223 2 2 1 1 208 73 170
224 2 2 1 1 209 170 100
225 2 2 1 1 66 210 212
226 2 2 1 1 210 211 212
227 2 2 1 1 210 79 211
228 2 2 1 1 212 211 108
229 2 2 1 1 12 204 213
230 2 2 1 1 204 212 213
231 2 2 1 1 204 66 212
232 2 2 1 1 213 212 108
233 2 2 1 1 106 152 215
234 2 2 1 1 152 214 215
235 2 2 1 1 152 69 214
236 2 2 1 1 215 214 108
237 2 2 1 1 42 205 217
238 2 2 1 1 205 216 217
239 2 2 1 1 205 68 216
240 2 2 1 1 217 216 107
241 2 2 1 1 71 218 220
242 2 2 1 1 218 219 220
243 2 2 1 1 218 40 219
244 2 2 1 1 220 219 107
245 2 2 1 1 79 221 211
246 2 2 1 1 221 215 211
247 2 2 1 1 221 106 215
248 2 2 1 1 211 215 108
249 2 2 1 1 16 222 223
250 2 2 1 1 222 208 223
251 2 2 1 1 222 73 208
252 2 2 1 1 223 208 77
253 2 2 1 1 31 224 226
254 2 2 1 1 224 225 226
255 2 2 1 1 224 74 225
256 2 2 1 1 226 225 101
257 2 2 1 1 46 227 229
258 2 2 1 1 227 228 229
259 2 2 1 1 227 75 228
260 2 2 1 1 229 228 105
261 2 2 1 1 40 41 219
262 2 2 1 1 41 217 219
263 2 2 1 1 41 42 217
264 2 2 1 1 219 217 107
265 2 2 1 1 66 196 210
266 2 2 1 1 196 230 210
267 2 2 1 1 196 78 230
268 2 2 1 1 210 230 79
269 2 2 1 1 14 15 198
270 2 2 1 1 15 223 198
271 2 2 1 1 15 16 223
272 2 2 1 1 198 223 77
273 2 2 1 1 29 30 200
274 2 2 1 1 30 226 200
275 2 2 1 1 30 31 226
276 2 2 1 1 200 226 101
277 2 2 1 1 44 45 202
278 2 2 1 1 45 229 202
279 2 2 1 1 45 46 229
280 2 2 1 1 202 229 105
281 2 2 1 1 78 195 231
282 2 2 1 1 195 209 231
283 2 2 1 1 195 77 209
284 2 2 1 1 231 209 100
285 2 2 1 1 16 17 222
286 2 2 1 1 17 232 222
287 2 2 1 1 17 18 232
288 2 2 1 1 222 232 73
289 2 2 1 1 31 32 224
290 2 2 1 1 32 233 224
291 2 2 1 1 32 33 233
292 2 2 1 1 224 233 74
293 2 2 1 1 46 47 227
294 2 2 1 1 47 234 227
295 2 2 1 1 47 48 234
296 2 2 1 1 227 234 75
297 2 2 1 1 61 62 236
298 2 2 1 1 62 235 236
299 2 2 1 1 62 63 235
300 2 2 1 1 236 235 76
301 2 2 1 1 10 11 237
302 2 2 1 1 11 213 237
303 2 2 1 1 11 12 213
304 2 2 1 1 237 213 108
305 2 2 1 1 69 238 214
306 2 2 1 1 238 237 214
307 2 2 1 1 238 10 237
308 2 2 1 1 214 237 108
309 2 2 1 1 79 230 240
310 2 2 1 1 230 239 240
311 2 2 1 1 230 78 239
312 2 2 1 1 240 239 80
313 2 2 1 1 79 240 242
314 2 2 1 1 240 241 242
315 2 2 1 1 240 80 241
316 2 2 1 1 242 241 81
317 2 2 1 1 79 242 221
318 2 2 1 1 242 175 221
319 2 2 1 1 242 81 175
320 2 2 1 1 221 175 106
321 2 2 1 1 81 241 244
322 2 2 1 1 241 243 244
323 2 2 1 1 241 80 243
324 2 2 1 1 244 243 82
325 2 2 1 1 89 245 247
326 2 2 1 1 245 246 247
327 2 2 1 1 245 88 246
328 2 2 1 1 247 246 91
329 2 2 1 1 85 248 250
330 2 2 1 1 248 249 250
331 2 2 1 1 248 86 249
332 2 2 1 1 250 249 88
333 2 2 1 1 86 251 253
334 2 2 1 1 251 252 253
335 2 2 1 1 251 87 252
336 2 2 1 1 253 252 90
337 2 2 1 1 82 254 256
338 2 2 1 1 254 255 256
339 2 2 1 1 254 84 255
340 2 2 1 1 256 255 85
341 2 2 1 1 82 243 258
342 2 2 1 1 243 257 258
343 2 2 1 1 243 80 257
344 2 2 1 1 258 257 83
345 2 2 1 1 86 259 251
346 2 2 1 1 259 260 251
347 2 2 1 1 259 84 260
348 2 2 1 1 251 260 87
349 2 2 1 1 85 250 261
350 2 2 1 1 250 245 261
351 2 2 1 1 250 88 245
352 2 2 1 1 261 245 89
353 2 2 1 1 89 247 262
354 2 2 1 1 247 141 262
355 2 2 1 1 247 91 141
356 2 2 1 1 262 141 95
357 2 2 1 1 85 255 248
358 2 2 1 1 255 259 248
359 2 2 1 1 255 84 259
360 2 2 1 1 248 259 86
361 2 2 1 1 89 263 264
362 2 2 1 1 263 174 264
363 2 2 1 1 263 96 174
364 2 2 1 1 264 174 110
365 2 2 1 1 82 258 254
366 2 2 1 1 258 265 254
367 2 2 1 1 258 83 265
368 2 2 1 1 254 265 84
369 2 2 1 1 85 261 266
370 2 2 1 1 261 264 266
371 2 2 1 1 261 89 264
372 2 2 1 1 266 264 110
373 2 2 1 1 82 256 267
374 2 2 1 1 256 266 267
375 2 2 1 1 256 85 266
376 2 2 1 1 267 266 110
377 2 2 1 1 8 9 268
378 2 2 1 1 9 238 268
379 2 2 1 1 9 10 238
380 2 2 1 1 268 238 69
381 2 2 1 1 23 24 269
382 2 2 1 1 24 158 269
383 2 2 1 1 24 25 158
384 2 2 1 1 269 158 70
385 2 2 1 1 38 39 270
386 2 2 1 1 39 218 270
387 2 2 1 1 39 40 218
388 2 2 1 1 270 218 71
389 2 2 1 1 53 54 272
390 2 2 1 1 54 271 272
391 2 2 1 1 54 55 271
392 2 2 1 1 272 271 72
393 2 2 1 1 81 244 166
394 2 2 1 1 244 267 166
395 2 2 1 1 244 82 267
396 2 2 1 1 166 267 110
397 2 2 1 1 89 262 263
398 2 2 1 1 262 164 263
399 2 2 1 1 262 95 164
400 2 2 1 1 263 164 96
401 2 2 1 1 93 273 275
402 2 2 1 1 273 274 275
403 2 2 1 1 273 87 274
404 2 2 1 1 275 274 94
405 2 2 1 1 90 252 276
406 2 2 1 1 252 273 276
407 2 2 1 1 252 87 273
408 2 2 1 1 276 273 93
409 2 2 1 1 88 249 278
410 2 2 1 1 249 277 278
411 2 2 1 1 249 86 277
412 2 2 1 1 278 277 109
413 2 2 1 1 86 253 277
414 2 2 1 1 253 279 277
415 2 2 1 1 253 90 279
416 2 2 1 1 277 279 109
417 2 2 1 1 91 246 281
418 2 2 1 1 246 280 281
419 2 2 1 1 246 88 280
420 2 2 1 1 281 280 92
421 2 2 1 1 92 280 282
422 2 2 1 1 280 278 282
423 2 2 1 1 280 88 278
424 2 2 1 1 282 278 109
425 2 2 1 1 102 142 284
426 2 2 1 1 142 283 284
427 2 2 1 1 142 94 283
428 2 2 1 1 284 283 119
429 2 2 1 1 74 285 287
430 2 2 1 1 285 286 287
431 2 2 1 1 285 112 286
432 2 2 1 1 287 286 130
433 2 2 1 1 115 288 289
434 2 2 1 1 288 287 289
435 2 2 1 1 288 74 287
436 2 2 1 1 289 287 130
437 2 2 1 1 21 22 291
438 2 2 1 1 22 290 291
439 2 2 1 1 22 23 290
440 2 2 1 1 291 290 111
441 2 2 1 1 36 37 293
442 2 2 1 1 37 292 293
443 2 2 1 1 37 38 292
444 2 2 1 1 293 292 112
445 2 2 1 1 51 52 295
446 2 2 1 1 52 294 295
447 2 2 1 1 52 53 294
448 2 2 1 1 295 294 113
449 2 2 1 1 65 163 296
450 2 2 1 1 163 145 296
451 2 2 1 1 163 95 145
452 2 2 1 1 296 145 118
453 2 2 1 1 6 7 298
454 2 2 1 1 7 297 298
455 2 2 1 1 7 8 297
456 2 2 1 1 298 297 114
457 2 2 1 1 8 268 297
458 2 2 1 1 268 193 297
459 2 2 1 1 268 69 193
460 2 2 1 1 297 193 114
461 2 2 1 1 97 161 154
462 2 2 1 1 161 299 154
463 2 2 1 1 161 65 299
464 2 2 1 1 154 299 120
465 2 2 1 1 23 269 290
466 2 2 1 1 269 133 290
467 2 2 1 1 269 70 133
468 2 2 1 1 290 133 111
469 2 2 1 1 38 270 292
470 2 2 1 1 270 300 292
471 2 2 1 1 270 71 300
472 2 2 1 1 292 300 112
473 2 2 1 1 53 272 294
474 2 2 1 1 272 301 294
475 2 2 1 1 272 72 301
476 2 2 1 1 294 301 113
477 2 2 1 1 119 302 304
478 2 2 1 1 302 303 304
479 2 2 1 1 302 83 303
480 2 2 1 1 304 303 125
481 2 2 1 1 99 149 192
482 2 2 1 1 149 305 192
483 2 2 1 1 149 76 305
484 2 2 1 1 192 305 114
485 2 2 1 1 83 257 307
486 2 2 1 1 257 306 307
487 2 2 1 1 257 80 306
488 2 2 1 1 307 306 117
489 2 2 1 1 78 231 308
490 2 2 1 1 231 191 308
491 2 2 1 1 231 100 191
492 2 2 1 1 308 191 117
493 2 2 1 1 57 207 309
494 2 2 1 1 207 296 309
495 2 2 1 1 207 65 296
496 2 2 1 1 309 296 118
497 2 2 1 1 72 271 144
498 2 2 1 1 271 310 144
499 2 2 1 1 271 55 310
500 2 2 1 1 144 310 118
501 2 2 1 1 94 274 283
502 2 2 1 1 274 311 283
503 2 2 1 1 274 87 311
504 2 2 1 1 283 311 119
505 2 2 1 1 84 265 312
506 2 2 1 1 265 302 312
507 2 2 1 1 265 83 302
508 2 2 1 1 312 302 119
509 2 2 1 1 65 206 299
510 2 2 1 1 206 313 299
511 2 2 1 1 206 59 313
512 2 2 1 1 299 313 120
513 2 2 1 1 61 236 314
514 2 2 1 1 236 155 314
515 2 2 1 1 236 76 155
516 2 2 1 1 314 155 120
517 2 2 1 1 63 64 316
518 2 2 1 1 64 315 316
519 2 2 1 1 64 1 315
520 2 2 1 1 316 315 121
521 2 2 1 1 18 19 318
522 2 2 1 1 19 317 318
523 2 2 1 1 19 2 317
524 2 2 1 1 318 317 122
525 2 2 1 1 33 34 320
526 2 2 1 1 34 319 320
527 2 2 1 1 34 3 319
528 2 2 1 1 320 319 123
529 2 2 1 1 48 49 322
530 2 2 1 1 49 321 322
531 2 2 1 1 49 4 321
532 2 2 1 1 322 321 124
533 2 2 1 1 1 5 315
534 2 2 1 1 5 323 315
535 2 2 1 1 5 6 323
536 2 2 1 1 315 323 121
537 2 2 1 1 2 20 317
538 2 2 1 1 20 324 317
539 2 2 1 1 20 21 324
540 2 2 1 1 317 324 122
541 2 2 1 1 3 35 319
542 2 2 1 1 35 325 319
543 2 2 1 1 35 36 325
544 2 2 1 1 319 325 123
545 2 2 1 1 4 50 321
546 2 2 1 1 50 326 321
547 2 2 1 1 50 51 326
548 2 2 1 1 321 326 124
549 2 2 1 1 83 307 303
550 2 2 1 1 307 327 303
551 2 2 1 1 307 117 327
552 2 2 1 1 303 327 125
553 2 2 1 1 101 225 180
554 2 2 1 1 225 288 180
555 2 2 1 1 225 74 288
556 2 2 1 1 180 288 115
557 2 2 1 1 93 275 328
558 2 2 1 1 275 181 328
559 2 2 1 1 275 94 181
560 2 2 1 1 328 181 115
561 2 2 1 1 91 281 182
562 2 2 1 1 281 329 182
563 2 2 1 1 281 92 329
564 2 2 1 1 182 329 116
565 2 2 1 1 102 284 176
566 2 2 1 1 284 304 176
567 2 2 1 1 284 119 304
568 2 2 1 1 176 304 125
569 2 2 1 1 80 239 306
570 2 2 1 1 239 308 306
571 2 2 1 1 239 78 308
572 2 2 1 1 306 308 117
573 2 2 1 1 113 301 186
574 2 2 1 1 301 183 186
575 2 2 1 1 301 72 183
576 2 2 1 1 186 183 116
577 2 2 1 1 55 56 310
578 2 2 1 1 56 309 310
579 2 2 1 1 56 57 309
580 2 2 1 1 310 309 118
581 2 2 1 1 87 260 311
582 2 2 1 1 260 312 311
583 2 2 1 1 260 84 312
584 2 2 1 1 311 312 119
585 2 2 1 1 117 190 327
586 2 2 1 1 190 179 327
587 2 2 1 1 190 104 179
588 2 2 1 1 327 179 125
589 2 2 1 1 21 291 324
590 2 2 1 1 291 330 324
591 2 2 1 1 291 111 330
592 2 2 1 1 324 330 122
593 2 2 1 1 36 293 325
594 2 2 1 1 293 331 325
595 2 2 1 1 293 112 331
596 2 2 1 1 325 331 123
597 2 2 1 1 51 295 326
598 2 2 1 1 295 332 326
599 2 2 1 1 295 113 332
600 2 2 1 1 326 332 124
601 2 2 1 1 59 60 313
602 2 2 1 1 60 314 313
603 2 2 1 1 60 61 314
604 2 2 1 1 313 314 120
605 2 2 1 1 73 232 333
606 2 2 1 1 232 318 333
607 2 2 1 1 232 18 318
608 2 2 1 1 333 318 122
609 2 2 1 1 74 233 334
610 2 2 1 1 233 320 334
611 2 2 1 1 233 33 320
612 2 2 1 1 334 320 123
613 2 2 1 1 75 234 335
614 2 2 1 1 234 322 335
615 2 2 1 1 234 48 322
616 2 2 1 1 335 322 124
617 2 2 1 1 76 235 336
618 2 2 1 1 235 316 336
619 2 2 1 1 235 63 316
620 2 2 1 1 336 316 121
621 2 2 1 1 6 298 323
622 2 2 1 1 298 337 323
623 2 2 1 1 298 114 337
624 2 2 1 1 323 337 121
625 2 2 1 1 92 338 340
626 2 2 1 1 338 339 340
627 2 2 1 1 338 126 339
628 2 2 1 1 340 339 129
629 2 2 1 1 68 203 342
630 2 2 1 1 203 341 342
631 2 2 1 1 203 105 341
632 2 2 1 1 342 341 126
633 2 2 1 1 127 343 345
634 2 2 1 1 343 344 345
635 2 2 1 1 343 90 344
636 2 2 1 1 345 344 128
637 2 2 1 1 126 346 348
638 2 2 1 1 346 347 348
639 2 2 1 1 346 109 347
640 2 2 1 1 348 347 127
641 2 2 1 1 90 276 344
642 2 2 1 1 276 349 344
643 2 2 1 1 276 93 349
644 2 2 1 1 344 349 128
645 2 2 1 1 109 279 347
646 2 2 1 1 279 343 347
647 2 2 1 1 279 90 343
648 2 2 1 1 347 343 127
649 2 2 1 1 68 342 350
650 2 2 1 1 342 348 350
651 2 2 1 1 342 126 348
652 2 2 1 1 350 348 127
653 2 2 1 1 107 351 352
654 2 2 1 1 351 345 352
655 2 2 1 1 351 127 345
656 2 2 1 1 352 345 128
657 2 2 1 1 71 220 353
658 2 2 1 1 220 352 353
659 2 2 1 1 220 107 352
660 2 2 1 1 353 352 128
661 2 2 1 1 92 282 338
662 2 2 1 1 282 346 338
663 2 2 1 1 282 109 346
664 2 2 1 1 338 346 126
665 2 2 1 1 107 216 351
666 2 2 1 1 216 350 351
667 2 2 1 1 216 68 350
668 2 2 1 1 351 350 127
669 2 2 1 1 126 341 339
670 2 2 1 1 341 354 339
671 2 2 1 1 341 105 354
672 2 2 1 1 339 354 129
673 2 2 1 1 105 228 354
674 2 2 1 1 228 189 354
675 2 2 1 1 228 75 189
676 2 2 1 1 354 189 129
677 2 2 1 1 113 185 332
678 2 2 1 1 185 335 332
679 2 2 1 1 185 75 335
680 2 2 1 1 332 335 124
681 2 2 1 1 111 171 330
682 2 2 1 1 171 333 330
683 2 2 1 1 171 73 333
684 2 2 1 1 330 333 122
685 2 2 1 1 112 285 331
686 2 2 1 1 285 334 331
687 2 2 1 1 285 74 334
688 2 2 1 1 331 334 123
689 2 2 1 1 128 349 356
690 2 2 1 1 349 355 356
691 2 2 1 1 349 93 355
692 2 2 1 1 356 355 130
693 2 2 1 1 71 353 357
694 2 2 1 1 353 356 357
695 2 2 1 1 353 128 356
696 2 2 1 1 357 356 130
697 2 2 1 1 114 305 337
698 2 2 1 1 305 336 337
699 2 2 1 1 305 76 336
700 2 2 1 1 337 336 121
701 2 2 1 1 112 300 286
702 2 2 1 1 300 357 286
703 2 2 1 1 300 71 357
704 2 2 1 1 286 357 130
705 2 2 1 1 116 329 188
706 2 2 1 1 329 340 188
707 2 2 1 1 329 92 340
708 2 2 1 1 188 340 129
709 2 2 1 1 93 328 355
710 2 2 1 1 328 289 355
711 2 2 1 1 328 115 289
712 2 2 1 1 355 289 130
$EndElements
